<svg width="121" height="82" viewBox="0 0 121 82" fill="none" xmlns="http://www.w3.org/2000/svg">
<path d="M64.1887 13.0278C64.2828 13.1138 64.3208 13.2191 64.2948 13.322C64.2689 13.425 64.1809 13.5178 64.049 13.5814C50.5362 20.0304 41.8639 28.4754 38.0319 38.9162C37.8767 39.3532 38.0939 39.6932 38.6835 39.936C42.7792 41.5968 47.1542 42.4418 47.1076 46.1859C47.0611 49.459 47.0145 52.7078 46.968 55.9323C46.9693 56.0257 47.0066 56.1178 47.0766 56.2002C47.1465 56.2827 47.247 56.353 47.369 56.4048C47.4911 56.4567 47.6309 56.4886 47.7761 56.4977C47.9213 56.5067 48.0674 56.4927 48.2014 56.4567C60.6515 53.2225 84.7372 51.9113 92.8123 60.7108C93.1691 61.0993 93.7121 61.2741 94.4413 61.2352C103.3 60.7885 110.134 58.4478 114.943 54.2132C128.254 42.4563 109.986 21.2736 92.5795 13.8145C92.4036 13.7401 92.2577 13.6412 92.1532 13.5255C92.0486 13.4099 91.9884 13.2806 91.9771 13.1479C91.9658 13.0152 92.0038 12.8827 92.0882 12.7607C92.1725 12.6388 92.3009 12.5307 92.4632 12.4451C95.4885 10.8717 102.796 7.34607 102.772 4.75286C102.766 3.86921 102.2 3.02285 101.198 2.39802C100.195 1.77319 98.8376 1.42048 97.42 1.41666C88.6235 1.38752 61.978 -0.0256307 55.0897 2.52387C54.2236 2.84312 53.5937 3.36335 53.3366 3.97161C53.0796 4.57987 53.2162 5.22706 53.7167 5.77266C56.5325 8.87577 61.0704 10.2744 64.1887 13.0278Z" stroke="#8AD0EF" stroke-width="2"/>
<path d="M42.5919 45.501C42.598 44.3998 40.4806 43.3391 36.7056 42.5522C32.9306 41.7652 27.8071 41.3166 22.4623 41.3049C19.8158 41.2991 17.1946 41.4008 14.7484 41.6041C12.3022 41.8075 10.0789 42.1085 8.20542 42.4899C6.33194 42.8714 4.84498 43.3259 3.82943 43.8274C2.81388 44.3289 2.28963 44.8677 2.28663 45.413C2.28052 46.5141 4.39787 47.5749 8.17289 48.3618C11.9479 49.1487 17.0714 49.5973 22.4162 49.609C25.0627 49.6148 27.6839 49.5131 30.1301 49.3098C32.5763 49.1065 34.7996 48.8055 36.6731 48.424C38.5466 48.0425 40.0335 47.5881 41.0491 47.0865C42.0646 46.585 42.5889 46.0462 42.5919 45.501Z" stroke="#909DB9" stroke-width="2"/>
<path d="M4.63704 50.4681C2.60469 50.0116 1.67388 50.4535 1.84454 51.7938L1.91435 52.26C2.13155 53.9597 3.52008 55.1058 6.07991 55.6982C17.5604 58.3594 28.9012 58.2283 40.1024 55.3049C41.5607 54.9261 42.3519 54.2462 42.476 53.2653L42.7786 50.9489C42.8872 50.1524 42.3519 49.8999 41.1728 50.1913C29.0253 53.173 16.8467 53.2653 4.63704 50.4681Z" stroke="#909DB9" stroke-width="2"/>
<path d="M87.5758 61.0891C87.5758 59.9647 85.4476 58.8864 81.6595 58.0913C77.8714 57.2963 72.7337 56.8496 67.3764 56.8496C62.0192 56.8496 56.8814 57.2963 53.0933 58.0913C49.3052 58.8864 47.177 59.9647 47.177 61.0891C47.177 61.6458 47.6995 62.1971 48.7146 62.7114C49.7297 63.2258 51.2176 63.6931 53.0933 64.0868C54.969 64.4805 57.1958 64.7928 59.6465 65.0058C62.0972 65.2189 64.7238 65.3285 67.3764 65.3285C70.0291 65.3285 72.6557 65.2189 75.1064 65.0058C77.5571 64.7928 79.7838 64.4805 81.6595 64.0868C83.5352 63.6931 85.0231 63.2258 86.0382 62.7114C87.0533 62.1971 87.5758 61.6458 87.5758 61.0891Z" stroke="#909DB9" stroke-width="2"/>
<path d="M5.87101 63.5244C16.9636 65.9913 28.0795 65.9816 39.2187 63.4953C40.2234 63.2716 41.0999 62.8658 41.7377 62.3291C42.3755 61.7925 42.746 61.1489 42.8024 60.4796L42.8723 59.6055C42.9809 58.2457 42.0189 57.8087 39.9866 58.2943C28.1493 61.1012 16.3353 61.0672 4.54461 58.1923C2.31057 57.6484 1.37192 58.1146 1.72874 59.5909L1.98476 60.5816C2.14644 61.2463 2.59329 61.8712 3.27772 62.3895C3.96214 62.9077 4.85843 63.3 5.87101 63.5244Z" stroke="#909DB9" stroke-width="2"/>
<path d="M40.428 66.0282C28.4666 68.8157 16.5053 68.8351 4.54389 66.0865C2.72874 65.6786 1.87545 66.0719 1.98405 67.2666L2.03057 68.097C2.17019 69.7966 3.52768 70.9038 6.10302 71.4186C17.2111 73.6719 28.2805 73.6039 39.3111 71.2146C41.0952 70.8261 42.1191 70.0443 42.3828 68.8691L42.7551 67.2083C43.0344 65.9942 42.2587 65.6009 40.428 66.0282Z" stroke="#909DB9" stroke-width="2"/>
<path d="M87.7393 68.2435L87.8323 67.3403C87.9719 66.0485 87.0799 65.626 85.1561 66.0728C73.0241 68.87 60.9463 68.8165 48.9229 65.9125C47.5111 65.5726 46.844 65.8737 46.9216 66.8158L47.0845 68.9137C47.1196 69.3761 47.3699 69.8216 47.8044 70.1947C48.2389 70.5677 48.8383 70.8518 49.5279 71.0115C60.9308 73.6825 72.3958 73.7941 83.9228 71.3466C84.9784 71.1214 85.904 70.7067 86.5831 70.1545C87.2622 69.6024 87.6645 68.9375 87.7393 68.2435Z" stroke="#909DB9" stroke-width="2"/>
<path d="M46.8746 74.5495L47.0841 76.6619C47.1319 77.132 47.3941 77.5836 47.8396 77.9632C48.285 78.3428 48.8951 78.6344 49.5973 78.8035C61.0002 81.6007 72.4496 81.7075 83.9456 79.124C86.4899 78.551 87.7543 77.4195 87.7388 75.7295V75.2633C87.7233 74.0104 86.7692 73.5831 84.8764 73.9813C72.7289 76.5745 60.6822 76.4774 48.7363 73.6899C47.4176 73.3888 46.7971 73.6754 46.8746 74.5495Z" stroke="#909DB9" stroke-width="2"/>
<path d="M1.82149 74.9161L2.12403 76.5915C2.20917 77.0795 2.50562 77.5437 2.98136 77.9339C3.4571 78.3242 4.09406 78.6257 4.8235 78.8059C16.1178 81.6322 27.4741 81.7293 38.8925 79.0973C41.08 78.5922 42.3134 77.6161 42.5927 76.169L42.7555 75.2949C43.0193 73.9448 42.1272 73.4981 40.0793 73.9545C28.0559 76.5866 16.0868 76.5283 4.17191 73.7797C2.4033 73.3718 1.61981 73.7506 1.82149 74.9161Z" stroke="#909DB9" stroke-width="2"/>
<path d="M71.8219 28.9377C75.3126 25.4995 82.0612 27.3934 86.4129 29.5496C87.7626 30.2198 89.1512 30.2343 90.5785 29.5933C91.3076 29.2728 91.5248 28.8503 91.2301 28.3258C89.8493 25.7909 87.1111 24.0524 83.0153 23.1103C82.6865 23.0312 82.3994 22.8982 82.1858 22.7259C81.9722 22.5536 81.8404 22.3488 81.8052 22.1342C81.5104 20.5414 80.1607 19.6624 77.756 19.4973C77.342 19.469 76.9245 19.5263 76.5674 19.6605C76.2102 19.7946 75.933 19.9983 75.778 20.2403C74.3662 22.4061 71.9072 23.9601 68.401 24.9022C67.8582 25.0435 67.4009 25.2941 67.0978 25.6161C59.6743 33.4685 70.891 36.6299 81.2467 36.5716C81.9177 36.5651 82.5779 36.6782 83.1501 36.8978C83.7223 37.1174 84.1829 37.4343 84.4782 37.8116C84.7734 38.1889 84.8911 38.611 84.8175 39.0286C84.7439 39.4463 84.482 39.8421 84.0625 40.1701C80.2926 43.1421 74.1723 41.1025 70.0533 39.4125C68.2691 38.6744 66.7565 38.6598 65.5154 39.3688C64.8482 39.7476 64.6854 40.1992 65.0267 40.7237C66.5626 43.0935 69.2621 44.6621 73.1251 45.4293C73.4858 45.5048 73.8086 45.6372 74.0617 45.8135C74.3147 45.9898 74.4892 46.2039 74.5679 46.4346L75.173 48.2994C75.2532 48.5285 75.459 48.7333 75.7557 48.8793C76.0525 49.0252 76.4219 49.1034 76.8019 49.1006L79.385 49.0715C80.4245 49.0521 81.0528 48.7218 81.27 48.0808L81.782 46.624C81.8691 46.3941 82.041 46.1805 82.2836 46.0008C82.5263 45.821 82.8328 45.6801 83.1782 45.5896C92.4634 43.2732 94.8138 36.1783 85.7846 33.2209C82.4801 32.1574 78.012 32.2011 74.242 31.9971C73.6958 31.968 73.1708 31.8512 72.7177 31.658C72.2646 31.4648 71.8987 31.2017 71.6554 30.8942C71.4121 30.5866 71.2997 30.245 71.3288 29.9023C71.358 29.5596 71.5278 29.2274 71.8219 28.9377Z" stroke="#8AD0EF" stroke-width="2"/>
<path d="M64.1887 13.0278C61.0704 10.2744 56.5325 8.87577 53.7167 5.77266C53.2162 5.22706 53.0796 4.57987 53.3366 3.97161C53.5937 3.36335 54.2236 2.84312 55.0897 2.52387C61.978 -0.0256307 88.6235 1.38752 97.42 1.41666C98.8376 1.42048 100.195 1.77319 101.198 2.39802C102.2 3.02285 102.766 3.86921 102.772 4.75286C102.796 7.34607 95.4885 10.8717 92.4632 12.4451C92.3009 12.5307 92.1725 12.6388 92.0882 12.7607C92.0038 12.8827 91.9658 13.0152 91.9771 13.1479C91.9884 13.2806 92.0486 13.4099 92.1532 13.5255C92.2577 13.6412 92.4036 13.7401 92.5795 13.8145C109.986 21.2736 128.254 42.4563 114.943 54.2132C110.134 58.4478 103.3 60.7885 94.4413 61.2352C93.7121 61.2741 93.1691 61.0993 92.8123 60.7108C84.7372 51.9113 60.6515 53.2225 48.2014 56.4567C48.0674 56.4927 47.9213 56.5067 47.7761 56.4977C47.6309 56.4886 47.4911 56.4567 47.369 56.4048C47.247 56.353 47.1465 56.2827 47.0766 56.2002C47.0066 56.1178 46.9693 56.0257 46.968 55.9323C47.0146 52.7078 47.0611 49.459 47.1076 46.1859C47.1542 42.4418 42.7792 41.5968 38.6835 39.936C38.0939 39.6932 37.8767 39.3532 38.0319 38.9162C41.8639 28.4754 50.5362 20.0304 64.049 13.5814C64.1809 13.5178 64.2689 13.425 64.2948 13.322C64.3208 13.2191 64.2828 13.1138 64.1887 13.0278ZM71.8217 28.9367C75.3124 25.4985 82.061 27.3924 86.4127 29.5486C87.7624 30.2187 89.151 30.2333 90.5783 29.5923C91.3074 29.2718 91.5246 28.8493 91.2299 28.3248C89.8491 25.7899 87.1109 24.0514 83.0151 23.1093C82.6863 23.0302 82.3992 22.8971 82.1856 22.7248C81.972 22.5525 81.8402 22.3477 81.805 22.1332C81.5102 20.5403 80.1605 19.6614 77.7558 19.4963C77.3418 19.468 76.9243 19.5253 76.5672 19.6595C76.21 19.7936 75.9328 19.9972 75.7777 20.2393C74.366 22.4051 71.907 23.9591 68.4008 24.9012C67.858 25.0425 67.4007 25.2931 67.0976 25.6151C59.6741 33.4675 70.8908 36.6289 81.2465 36.5706C81.9175 36.5641 82.5777 36.6772 83.1499 36.8968C83.7221 37.1164 84.1827 37.4333 84.478 37.8106C84.7732 38.1879 84.8909 38.61 84.8173 39.0276C84.7437 39.4452 84.4818 39.8411 84.0623 40.1691C80.2924 43.1411 74.1721 41.1015 70.0531 39.4115C68.2689 38.6734 66.7563 38.6588 65.5151 39.3678C64.848 39.7466 64.6852 40.1982 65.0265 40.7227C66.5624 43.0925 69.2619 44.661 73.1249 45.4283C73.4856 45.5038 73.8084 45.6362 74.0615 45.8125C74.3145 45.9888 74.489 46.2028 74.5677 46.4336L75.1727 48.2983C75.253 48.5275 75.4588 48.7323 75.7555 48.8783C76.0522 49.0242 76.4217 49.1024 76.8017 49.0996L79.3848 49.0705C80.4243 49.051 81.0526 48.7208 81.2698 48.0798L81.7818 46.6229C81.8689 46.3931 82.0408 46.1795 82.2834 45.9998C82.5261 45.82 82.8326 45.6791 83.178 45.5886C92.4632 43.2722 94.8136 36.1773 85.7844 33.2199C82.4799 32.1563 78.0118 32.2001 74.2418 31.9961C73.6956 31.967 73.1706 31.8502 72.7175 31.657C72.2644 31.4638 71.8985 31.2007 71.6552 30.8932C71.4119 30.5856 71.2995 30.244 71.3286 29.9013C71.3578 29.5586 71.5276 29.2263 71.8217 28.9367Z" fill="#A30400"/>
<path d="M71.8212 28.9377C71.5271 29.2274 71.3572 29.5596 71.3281 29.9023C71.2989 30.245 71.4114 30.5866 71.6547 30.8942C71.898 31.2017 72.2639 31.4648 72.717 31.658C73.1701 31.8512 73.6951 31.968 74.2413 31.9971C78.0112 32.2011 82.4794 32.1574 85.7839 33.2209C94.8131 36.1783 92.4626 43.2732 83.1774 45.5896C82.8321 45.6801 82.5256 45.821 82.2829 46.0008C82.0402 46.1805 81.8684 46.3941 81.7812 46.624L81.2693 48.0808C81.0521 48.7218 80.4237 49.0521 79.3843 49.0715L76.8012 49.1006C76.4212 49.1034 76.0517 49.0252 75.755 48.8793C75.4583 48.7333 75.2525 48.5285 75.1722 48.2994L74.5671 46.4346C74.4885 46.2039 74.314 45.9898 74.0609 45.8135C73.8079 45.6372 73.4851 45.5048 73.1243 45.4293C69.2613 44.6621 66.5618 43.0935 65.0259 40.7237C64.6846 40.1992 64.8475 39.7476 65.5146 39.3688C66.7558 38.6598 68.2684 38.6744 70.0525 39.4125C74.1715 41.1025 80.2918 43.1421 84.0618 40.1701C84.4813 39.8421 84.7432 39.4463 84.8168 39.0286C84.8904 38.611 84.7727 38.1889 84.4774 37.8116C84.1822 37.4343 83.7216 37.1174 83.1494 36.8978C82.5772 36.6782 81.917 36.5651 81.246 36.5716C70.8903 36.6299 59.6736 33.4685 67.0971 25.6161C67.4001 25.2941 67.8575 25.0435 68.4003 24.9022C71.9065 23.9601 74.3654 22.4061 75.7772 20.2403C75.9322 19.9983 76.2095 19.7946 76.5667 19.6605C76.9238 19.5263 77.3412 19.469 77.7553 19.4973C80.16 19.6624 81.5097 20.5414 81.8045 22.1342C81.8397 22.3488 81.9714 22.5536 82.185 22.7259C82.3986 22.8982 82.6858 23.0312 83.0146 23.1103C87.1103 24.0524 89.8486 25.7909 91.2293 28.3258C91.5241 28.8503 91.3069 29.2728 90.5777 29.5933C89.1504 30.2343 87.7619 30.2198 86.4122 29.5496C82.0605 27.3934 75.3118 25.4995 71.8212 28.9377Z" fill="white"/>
<path d="M22.4165 49.6117C33.5465 49.6361 42.5796 47.7969 42.5924 45.5038C42.6051 43.2107 33.5928 41.332 22.4628 41.3077C11.3327 41.2834 2.29969 43.1226 2.28691 45.4157C2.27412 47.7088 11.2864 49.5874 22.4165 49.6117Z" fill="#21A300"/>
<path d="M4.63704 50.4681C16.8467 53.2653 29.0253 53.173 41.1728 50.1913C42.3519 49.8999 42.8871 50.1524 42.7786 50.9489L42.476 53.2653C42.3519 54.2462 41.5607 54.9261 40.1024 55.3049C28.9012 58.2283 17.5604 58.3594 6.07991 55.6982C3.52008 55.1058 2.13155 53.9597 1.91435 52.26L1.84454 51.7938C1.67388 50.4535 2.60469 50.0116 4.63704 50.4681Z" fill="#21A300"/>
<path d="M67.3764 65.3285C78.5323 65.3285 87.5758 63.4305 87.5758 61.0891C87.5758 58.7477 78.5323 56.8496 67.3764 56.8496C56.2206 56.8496 47.177 58.7477 47.177 61.0891C47.177 63.4305 56.2206 65.3285 67.3764 65.3285Z" fill="#21A300"/>
<path d="M5.87101 63.5244C4.85843 63.3 3.96214 62.9077 3.27772 62.3895C2.59329 61.8712 2.14644 61.2463 1.98476 60.5816L1.72874 59.5909C1.37192 58.1146 2.31057 57.6484 4.54461 58.1923C16.3353 61.0672 28.1493 61.1012 39.9866 58.2943C42.0189 57.8087 42.9809 58.2457 42.8723 59.6055L42.8024 60.4796C42.746 61.1489 42.3755 61.7925 41.7377 62.3291C41.0999 62.8658 40.2234 63.2716 39.2187 63.4953C28.0795 65.9816 16.9636 65.9913 5.87101 63.5244Z" fill="#21A300"/>
<path d="M40.428 66.0282C42.2587 65.6009 43.0344 65.9942 42.7551 67.2083L42.3828 68.8691C42.1191 70.0443 41.0952 70.8261 39.3111 71.2146C28.2805 73.6039 17.2111 73.6719 6.10302 71.4186C3.52768 70.9038 2.17019 69.7966 2.03057 68.097L1.98405 67.2666C1.87545 66.0719 2.72874 65.6786 4.54389 66.0865C16.5053 68.8351 28.4666 68.8157 40.428 66.0282Z" fill="#21A300"/>
<path d="M83.9228 71.3466C72.3958 73.7941 60.9308 73.6825 49.5279 71.0115C48.8383 70.8518 48.2389 70.5677 47.8044 70.1947C47.3699 69.8216 47.1196 69.3761 47.0845 68.9137L46.9216 66.8158C46.844 65.8737 47.5111 65.5726 48.9229 65.9125C60.9463 68.8165 73.0241 68.87 85.1561 66.0728C87.0799 65.626 87.9719 66.0485 87.8323 67.3403L87.7393 68.2435C87.6645 68.9375 87.2622 69.6024 86.5831 70.1545C85.904 70.7067 84.9784 71.1214 83.9228 71.3466Z" fill="#21A300"/>
<path d="M48.7363 73.6899C60.6822 76.4774 72.7289 76.5745 84.8764 73.9813C86.7692 73.5831 87.7233 74.0104 87.7388 75.2633V75.7295C87.7543 77.4195 86.4899 78.551 83.9456 79.124C72.4496 81.7075 61.0002 81.6007 49.5973 78.8035C48.8951 78.6344 48.285 78.3428 47.8396 77.9632C47.3941 77.5836 47.1319 77.132 47.0841 76.6619L46.8746 74.5495C46.7971 73.6754 47.4176 73.3888 48.7363 73.6899Z" fill="#21A300"/>
<path d="M4.17191 73.7797C16.0868 76.5283 28.0559 76.5866 40.0793 73.9545C42.1272 73.4981 43.0193 73.9448 42.7555 75.2949L42.5927 76.169C42.3134 77.6161 41.08 78.5922 38.8925 79.0973C27.4741 81.7293 16.1178 81.6322 4.8235 78.8059C4.09406 78.6257 3.4571 78.3242 2.98136 77.9339C2.50562 77.5437 2.20917 77.0795 2.12403 76.5915L1.82149 74.9161C1.61981 73.7506 2.4033 73.3718 4.17191 73.7797Z" fill="#21A300"/>
</svg>
