<svg width="105" height="90" viewBox="0 0 105 90" fill="none" xmlns="http://www.w3.org/2000/svg">
<path d="M37.7488 0.127647C37.9319 0.319115 37.8912 0.691406 37.6572 0.914787C37.4741 1.08498 37.2096 1.12752 35.7041 1.19134C33.0695 1.29771 31.5843 1.5211 29.4278 2.11677C27.2509 2.73372 25.9082 3.6485 24.8706 5.24406C24.2196 6.24393 24.0161 6.68007 23.7008 7.76505C23.1515 9.63717 22.9785 10.6583 22.8158 12.9772C22.7649 13.7643 22.6734 15.1046 22.6123 15.9556C22.5411 16.9555 22.5106 22.0187 22.531 30.3049L22.5615 43.1119L22.8463 43.3353L23.1413 43.5587L38.2065 43.5268C52.3664 43.4842 53.3023 43.4736 53.5362 43.3034C53.6786 43.197 54.5026 42.1546 55.3672 40.9739C57.6865 37.8253 57.7272 37.7828 62.6811 31.2091C63.2203 30.4964 64.0239 29.4327 64.4715 28.8264C64.9191 28.2307 65.3666 27.635 65.4785 27.518C65.5803 27.3904 65.8651 27.0181 66.1092 26.6777C66.6789 25.9225 67.2587 25.6353 67.8792 25.8374C68.5506 26.0395 68.7947 26.3479 68.8659 27.0181C68.9371 27.7946 68.8151 28.0605 67.808 29.3263C66.9535 30.3794 65.2954 32.5281 64.8275 33.1876C64.6851 33.379 64.2985 33.8896 63.9629 34.3151C63.1287 35.3575 61.5113 37.453 61.0129 38.1338C60.7891 38.4316 59.9855 39.4953 59.2327 40.4846C57.4729 42.7822 57.1372 43.2715 57.2593 43.3991C57.3102 43.4523 62.3556 43.5055 69.6492 43.5161L81.9475 43.548L82.1306 43.3034C82.3137 43.0694 82.3239 42.5588 82.3239 29.6454C82.3239 14.8812 82.2629 12.4028 81.856 10.3179C81.2151 7.05236 80.5539 5.56317 79.0688 4.04208C78.4381 3.40385 76.9631 2.54226 76.0781 2.29761C75.7933 2.21251 75.305 2.07423 74.9998 1.97849C73.83 1.62746 71.175 1.28708 69.1813 1.24453C67.7063 1.21262 67.452 1.18072 67.2689 1.01052C67.0451 0.797783 66.9942 0.32975 67.1875 0.127647C67.279 0.0319138 71.6023 0 85.9961 0C102.852 0 104.703 0.0212708 104.845 0.170197C105.039 0.372299 105.049 0.436119 104.886 0.797775C104.734 1.15944 104.296 1.26582 102.821 1.26582C100.359 1.28709 98.1114 1.79767 96.199 2.77628C93.5135 4.15909 92.3335 6.58434 91.713 12.0199C91.54 13.5835 91.5299 15.2642 91.5299 44.8883C91.5299 74.4061 91.54 76.2038 91.713 77.8099C91.8147 78.746 91.9673 79.8203 92.0385 80.2033C92.1199 80.5862 92.2114 81.0862 92.2419 81.3202C92.3844 82.1924 93.0761 83.9901 93.5542 84.724C93.9509 85.3197 94.4697 85.8941 95.08 86.4153C95.7412 86.9684 97.2264 87.7662 97.9893 87.9683C99.1286 88.2768 99.7186 88.3832 100.482 88.447C100.929 88.4895 101.682 88.5853 102.16 88.6704C102.638 88.7555 103.401 88.8193 103.849 88.8193C104.774 88.8193 104.947 88.9257 104.886 89.4256C104.866 89.6171 104.764 89.766 104.591 89.8511C104.378 89.9575 100.41 89.9894 85.8741 89.9894L67.4215 90L67.2485 89.766C67.1468 89.6383 67.0654 89.4575 67.0654 89.3511C67.0654 88.9469 67.3706 88.8512 69.0999 88.7236C72.1414 88.5002 72.9043 88.4151 74.2267 88.1279C76.129 87.713 77.4819 87.0854 78.7839 86.0005C80.442 84.6283 81.5508 82.118 82.0188 78.7141C82.2629 76.9377 82.3239 73.1297 82.3239 59.6419C82.3239 47.1859 82.3036 45.484 82.1713 45.2074L82.0086 44.8883H69.0694C58.8665 44.8883 56.0793 44.9202 55.9572 45.0159C55.7335 45.2074 54.3805 46.9306 53.3328 48.3879C52.8547 49.0474 52.2647 49.8558 52.0104 50.1962C50.22 52.6214 47.6464 56.5465 46.3037 58.8654C45.9477 59.4823 45.5306 60.195 45.378 60.4397C44.1166 62.5352 41.3599 67.8962 40.5258 69.8854C40.3325 70.3215 40.0579 70.9703 39.8951 71.3214C39.3967 72.4382 38.9796 73.5232 38.6134 74.672C38.41 75.289 38.1658 76.0229 38.0539 76.3101C37.9522 76.5973 37.8708 76.9271 37.8708 77.0547C37.8607 77.3951 37.3317 78.4482 37.1486 78.4801C36.8333 78.5439 36.8333 78.4482 37.2198 75.7889C37.3114 75.1401 37.4233 74.321 37.4741 73.9593C37.6267 72.7786 38.4303 69.8641 39.1627 67.8643C41.2074 62.248 45.2966 54.9403 50.4133 47.7922C51.2576 46.6115 52.2138 45.1223 52.2138 44.984C52.2138 44.9309 52.0002 44.8883 51.7357 44.8883C51.4611 44.8883 44.8897 44.8883 37.1079 44.8883C23.1006 44.8989 22.9684 44.8989 22.7649 45.1117C22.5615 45.3138 22.5615 45.4627 22.5615 59.8653C22.5615 70.747 22.592 74.6827 22.6835 75.523C22.7548 76.1399 22.8666 77.2143 22.9277 77.9163C23.182 80.9479 23.9754 83.4582 25.1452 84.9793C25.898 85.9473 27.1797 86.8833 28.614 87.5109C29.3566 87.8407 31.0452 88.2555 32.154 88.3938C34.6462 88.6916 35.165 88.7448 36.2941 88.7874C37.1995 88.8299 37.5555 88.8831 37.6979 89.0108C37.9217 89.2129 37.9217 89.5107 37.6877 89.7553C37.5148 89.9362 36.6095 89.9468 18.93 89.9681C2.21681 89.9894 0.334937 89.9681 0.192524 89.8192C0.00942229 89.6383 -0.0210939 89.2767 0.121319 89.0427C0.17218 88.9576 0.43666 88.8831 0.752002 88.8618C5.72627 88.4895 7.72005 88.0002 9.56124 86.6706C11.3007 85.4154 12.1959 83.7986 12.8876 80.6713C13.03 80.0225 13.1521 79.2566 13.1521 78.9694C13.1521 78.6822 13.2334 77.8525 13.325 77.1185C13.4776 75.9166 13.4979 73.002 13.5284 45.7393C13.559 25.6778 13.5386 15.2961 13.4674 14.5196C13.4064 13.8707 13.2843 12.5623 13.2029 11.605C13.0198 9.56271 12.7655 8.30753 12.2671 6.94598C11.5042 4.83985 10.4564 3.46768 9.06279 2.74436C8.29987 2.34016 6.88592 1.85085 6.03144 1.69129C4.35301 1.38282 3.55956 1.28709 2.14561 1.21262C1.27079 1.17008 0.446833 1.08498 0.324765 1.02116C0.0094231 0.850967 -0.092301 0.499939 0.0908009 0.223373L0.243386 0H18.9401C33.334 0 37.6572 0.0319138 37.7488 0.127647Z" fill="white"/>
</svg>
