<svg width="119" height="82" viewBox="0 0 119 82" fill="none" xmlns="http://www.w3.org/2000/svg">
<path d="M93.2589 8.70668L58.2139 24.19C55.911 25.2015 55.3919 26.7243 56.6567 28.7583L56.961 29.2477C57.3029 29.8072 57.8694 30.2251 58.5447 30.4161C59.22 30.6072 59.9531 30.5569 60.5944 30.2756L96.2478 14.5476C96.9996 14.2104 97.5484 14.3899 97.8945 15.086L99.2727 17.8107C99.4867 18.2453 99.8352 18.6135 100.276 18.8702C100.716 19.1269 101.229 19.2608 101.751 19.2556C102.274 19.2505 102.783 19.1063 103.217 18.841C103.651 18.5756 103.991 18.2005 104.195 17.7617L109.153 7.22198C109.288 6.93339 109.354 6.62192 109.348 6.30814C109.341 5.99436 109.262 5.68542 109.115 5.4017C108.968 5.11798 108.756 4.86595 108.494 4.66224C108.232 4.45853 107.926 4.30779 107.595 4.21995C103.849 3.23015 99.8872 2.20772 95.7109 1.15266C93.9569 0.717582 92.7756 1.21248 92.1671 2.63736C92.0316 2.95041 91.9694 3.28512 91.9849 3.61966C92.0003 3.95419 92.0929 4.28105 92.2565 4.57889L93.7779 7.35251C93.8417 7.47242 93.879 7.60266 93.8874 7.73574C93.8959 7.86882 93.8755 8.00212 93.8272 8.12796C93.779 8.25381 93.7039 8.36972 93.6064 8.46904C93.5088 8.56835 93.3908 8.64912 93.2589 8.70668Z" stroke="#909DB9" stroke-width="2"/>
<path d="M49.336 25.0719C49.336 19.3082 46.8243 13.7806 42.3533 9.70503C37.8823 5.62947 31.8184 3.33984 25.4955 3.33984C19.1726 3.33984 13.1086 5.62947 8.6376 9.70503C4.16662 13.7806 1.65491 19.3082 1.65491 25.0719C1.65491 30.8356 4.16662 36.3633 8.6376 40.4388C13.1086 44.5144 19.1726 46.804 25.4955 46.804C31.8184 46.804 37.8823 44.5144 42.3533 40.4388C46.8243 36.3633 49.336 30.8356 49.336 25.0719Z" stroke="#8AD0EF" stroke-width="2"/>
<path d="M47.8681 73.201V55.613C47.8681 55.4359 47.8295 55.2606 47.7546 55.0972C47.6797 54.9338 47.5701 54.7856 47.4319 54.6611C47.2937 54.5367 47.1297 54.4385 46.9496 54.3722C46.7694 54.306 46.5767 54.273 46.3825 54.2751L29.558 54.3077C29.2954 54.312 29.045 54.4084 28.8609 54.5763C28.6768 54.7441 28.5737 54.9699 28.5736 55.2051L28.5557 73.1683C28.5557 73.9406 28.1381 74.3267 27.3028 74.3267L19.1591 74.4083C18.288 74.4192 17.8525 74.0222 17.8525 73.2173L17.9778 52.3662C17.9778 51.6375 17.608 51.1371 16.8682 50.8652L11.624 48.9726C10.9915 48.7442 10.6753 48.94 10.6753 49.56V77.7203C10.6753 78.5857 11.0525 79.4157 11.7238 80.0277C12.3951 80.6396 13.3056 80.9834 14.255 80.9834L113.519 80.9997C116.168 80.9997 117.391 79.7924 117.188 77.3777L117.117 76.5619C117.064 75.9774 116.774 75.4317 116.304 75.0307C115.835 74.6297 115.218 74.4021 114.575 74.392L107.452 74.2614C107.251 74.2572 107.059 74.1814 106.919 74.0503C106.778 73.9192 106.7 73.7432 106.7 73.5599V28.5784C106.7 27.9927 106.446 27.4308 105.993 27.0151C105.541 26.5995 104.926 26.3638 104.284 26.3595L89.5533 26.3105C89.2721 26.3106 88.9937 26.3609 88.7341 26.4587C88.4745 26.5564 88.2388 26.6997 88.0408 26.8802C87.8428 27.0607 87.6863 27.2749 87.5804 27.5103C87.4744 27.7458 87.421 27.9979 87.4234 28.2521L87.674 72.842C87.6859 73.6904 87.2205 74.1201 86.2779 74.1309L78.3131 74.1799C78.187 74.1821 78.0619 74.1609 77.9447 74.1176C77.8276 74.0743 77.7208 74.0097 77.6309 73.9277C77.5409 73.8456 77.4694 73.7478 77.4206 73.6398C77.3718 73.5318 77.3466 73.4159 77.3466 73.2988L77.3645 42.0549C77.3645 41.5746 77.1533 41.1139 76.7773 40.7743C76.4014 40.4347 75.8916 40.2439 75.3599 40.2439L60.021 40.2112C59.7484 40.2112 59.4784 40.2606 59.2265 40.3566C58.9746 40.4525 58.7457 40.5931 58.5529 40.7704C58.3601 40.9476 58.2072 41.158 58.1028 41.3896C57.9985 41.6212 57.9448 41.8695 57.9448 42.1202L58.0521 73.2336C58.0521 73.8971 57.6942 74.2288 56.9783 74.2288L49.0673 74.2941C48.9106 74.2963 48.7551 74.2696 48.6097 74.2156C48.4644 74.1616 48.332 74.0815 48.2204 73.9797C48.1088 73.878 48.0202 73.7568 47.9597 73.6231C47.8993 73.4894 47.8681 73.3459 47.8681 73.201Z" stroke="#909DB9" stroke-width="2"/>
<path d="M22.0763 12.9648C13.7357 15.9015 13.3419 25.6581 22.309 27.2244C22.9892 27.3441 24.4807 27.4311 26.7836 27.4855C27.9888 27.5072 28.8539 27.7084 29.3789 28.0891C30.3215 28.7635 30.5005 29.7479 29.9158 31.0422C29.6891 31.5534 29.2954 31.9178 28.7346 32.1354C22.9713 34.289 22.8101 30.8301 18.6756 29.8349C17.6614 29.5847 17.0648 29.5412 16.8858 29.7044C16.5216 30.0256 16.2487 30.4217 16.0869 30.8638C15.9251 31.3058 15.8785 31.7827 15.9505 32.2595C16.0226 32.7364 16.2115 33.2012 16.5033 33.6201C16.7952 34.0389 17.1827 34.4012 17.6376 34.6805L22.1301 37.4379C22.7028 37.7968 23.025 38.2917 23.0965 38.9226C23.2875 40.4997 24.2182 41.185 25.8887 40.9783C26.1711 40.9425 26.4393 40.8451 26.6701 40.6944C26.9009 40.5437 27.0873 40.3443 27.2131 40.1136C29.1999 36.4263 32.9227 35.8553 34.6767 32.9185C38.6323 26.2944 29.9337 22.0035 23.2398 22.7051C22.7061 22.758 22.1695 22.6313 21.7311 22.3488C21.2927 22.0664 20.9827 21.6477 20.8593 21.1714L20.6624 20.4209C20.3164 19.1048 20.8533 18.2292 22.2732 17.7941C29.0209 15.771 28.663 20.1109 33.3165 20.3556C33.6337 20.37 33.9499 20.31 34.2344 20.1815C34.5189 20.0531 34.762 19.8605 34.9403 19.6225C35.1186 19.3844 35.2259 19.109 35.2519 18.823C35.2778 18.537 35.2216 18.25 35.0885 17.9899C33.8714 15.6079 31.9026 13.9709 29.182 13.079C28.9252 12.9938 28.6967 12.8517 28.5182 12.6661C28.3397 12.4806 28.2171 12.2577 28.1618 12.0185L27.7323 10.1259C27.6772 9.87071 27.5225 9.64182 27.2962 9.48034C27.0698 9.31887 26.7866 9.23538 26.4973 9.24487L24.2957 9.31013C24.0238 9.32044 23.7654 9.41861 23.568 9.58653C23.3707 9.75445 23.2477 9.98079 23.2218 10.2238L23.0607 11.7901C23.0011 12.3665 22.6729 12.7581 22.0763 12.9648Z" stroke="#8AD0EF" stroke-width="2"/>
<path d="M93.7779 7.35251L92.2565 4.57889C92.0929 4.28105 92.0003 3.95419 91.9849 3.61966C91.9694 3.28512 92.0316 2.95041 92.1671 2.63736C92.7756 1.21248 93.9569 0.717582 95.7109 1.15266C99.8872 2.20772 103.849 3.23015 107.595 4.21995C107.926 4.30779 108.232 4.45853 108.494 4.66224C108.756 4.86595 108.968 5.11798 109.115 5.4017C109.262 5.68542 109.341 5.99436 109.348 6.30814C109.354 6.62192 109.288 6.93339 109.153 7.22198L104.195 17.7617C103.991 18.2005 103.651 18.5756 103.217 18.841C102.783 19.1063 102.274 19.2505 101.751 19.2556C101.229 19.2608 100.716 19.1269 100.276 18.8702C99.8352 18.6135 99.4867 18.2453 99.2727 17.8107L97.8945 15.086C97.5484 14.3899 96.9996 14.2104 96.2478 14.5476L60.5944 30.2756C59.9531 30.5569 59.22 30.6072 58.5447 30.4161C57.8694 30.2251 57.3029 29.8072 56.961 29.2477L56.6567 28.7583C55.3919 26.7243 55.911 25.2015 58.2139 24.19L93.2589 8.70668C93.3908 8.64912 93.5088 8.56835 93.6064 8.46904C93.7039 8.36972 93.779 8.25381 93.8272 8.12796C93.8755 8.00212 93.8959 7.86882 93.8874 7.73574C93.879 7.60266 93.8417 7.47242 93.7779 7.35251Z" fill="#A30400"/>
<path d="M49.336 25.0719C49.336 30.8356 46.8243 36.3633 42.3533 40.4388C37.8823 44.5144 31.8184 46.804 25.4955 46.804C19.1726 46.804 13.1086 44.5144 8.6376 40.4388C4.16662 36.3633 1.65491 30.8356 1.65491 25.0719C1.65491 19.3082 4.16662 13.7806 8.6376 9.70503C13.1086 5.62947 19.1726 3.33984 25.4955 3.33984C31.8184 3.33984 37.8823 5.62947 42.3533 9.70503C46.8243 13.7806 49.336 19.3082 49.336 25.0719ZM22.0769 12.9659C13.7362 15.9027 13.3425 25.6593 22.3096 27.2256C22.9897 27.3452 24.4812 27.4322 26.7841 27.4866C27.9893 27.5084 28.8544 27.7096 29.3794 28.0903C30.3221 28.7647 30.501 29.749 29.9164 31.0434C29.6896 31.5546 29.2959 31.919 28.7351 32.1365C22.9718 34.2901 22.8107 30.8313 18.6761 29.836C17.6619 29.5859 17.0653 29.5423 16.8863 29.7055C16.5222 30.0268 16.2492 30.4229 16.0874 30.8649C15.9256 31.307 15.879 31.7838 15.9511 32.2607C16.0231 32.7375 16.212 33.2024 16.5038 33.6212C16.7957 34.04 17.1832 34.4024 17.6381 34.6817L22.1306 37.439C22.7034 37.7979 23.0255 38.2928 23.0971 38.9237C23.288 40.5009 24.2187 41.1861 25.8892 40.9794C26.1716 40.9437 26.4398 40.8462 26.6706 40.6955C26.9014 40.5448 27.0878 40.3455 27.2137 40.1147C29.2004 36.4274 32.9232 35.8564 34.6773 32.9196C38.6328 26.2956 29.9343 22.0046 23.2403 22.7062C22.7066 22.7591 22.1701 22.6324 21.7317 22.35C21.2933 22.0675 20.9832 21.6488 20.8598 21.1726L20.6629 20.4221C20.3169 19.1059 20.8538 18.2304 22.2737 17.7953C29.0214 15.7722 28.6635 20.1121 33.3171 20.3568C33.6342 20.3711 33.9504 20.3111 34.2349 20.1827C34.5195 20.0542 34.7626 19.8616 34.9409 19.6236C35.1191 19.3856 35.2265 19.1102 35.2524 18.8241C35.2784 18.5381 35.2221 18.2511 35.089 17.9911C33.8719 15.609 31.9031 13.972 29.1826 13.0801C28.9257 12.9949 28.6972 12.8528 28.5187 12.6673C28.3402 12.4817 28.2176 12.2588 28.1623 12.0196L27.7328 10.127C27.6777 9.87185 27.5231 9.64297 27.2967 9.48149C27.0704 9.32001 26.7871 9.23652 26.4978 9.24601L24.2962 9.31127C24.0244 9.32159 23.7659 9.41976 23.5686 9.58768C23.3712 9.7556 23.2483 9.98193 23.2224 10.2249L23.0613 11.7912C23.0016 12.3677 22.6735 12.7593 22.0769 12.9659Z" fill="#21A300"/>
<path d="M23.0607 11.7901L23.2218 10.2238C23.2477 9.98079 23.3707 9.75445 23.568 9.58653C23.7654 9.41861 24.0238 9.32044 24.2957 9.31013L26.4973 9.24487C26.7866 9.23538 27.0698 9.31887 27.2962 9.48034C27.5225 9.64182 27.6772 9.87071 27.7323 10.1259L28.1618 12.0185C28.2171 12.2577 28.3397 12.4806 28.5182 12.6661C28.6967 12.8517 28.9252 12.9938 29.182 13.079C31.9026 13.9709 33.8714 15.6079 35.0885 17.9899C35.2216 18.25 35.2778 18.537 35.2519 18.823C35.2259 19.109 35.1186 19.3844 34.9403 19.6225C34.762 19.8605 34.5189 20.0531 34.2344 20.1815C33.9499 20.31 33.6337 20.37 33.3165 20.3556C28.663 20.1109 29.0209 15.771 22.2732 17.7941C20.8533 18.2292 20.3164 19.1048 20.6624 20.4209L20.8593 21.1714C20.9827 21.6477 21.2927 22.0664 21.7311 22.3488C22.1695 22.6313 22.7061 22.758 23.2398 22.7051C29.9337 22.0035 38.6323 26.2944 34.6767 32.9185C32.9227 35.8553 29.1999 36.4263 27.2131 40.1136C27.0873 40.3443 26.9009 40.5437 26.6701 40.6944C26.4393 40.8451 26.1711 40.9425 25.8887 40.9783C24.2182 41.1849 23.2875 40.4997 23.0965 38.9226C23.025 38.2917 22.7028 37.7968 22.1301 37.4379L17.6376 34.6805C17.1827 34.4012 16.7952 34.0389 16.5033 33.6201C16.2115 33.2012 16.0226 32.7364 15.9505 32.2596C15.8785 31.7827 15.9251 31.3058 16.0869 30.8638C16.2487 30.4217 16.5216 30.0256 16.8858 29.7044C17.0648 29.5412 17.6614 29.5847 18.6756 29.8349C22.8101 30.8301 22.9713 34.289 28.7346 32.1354C29.2954 31.9178 29.6891 31.5534 29.9158 31.0422C30.5005 29.7479 30.3215 28.7635 29.3789 28.0891C28.8539 27.7084 27.9888 27.5072 26.7836 27.4855C24.4807 27.4311 22.9892 27.3441 22.309 27.2244C13.3419 25.6581 13.7357 15.9015 22.0763 12.9648C22.6729 12.7581 23.0011 12.3665 23.0607 11.7901Z" fill="white"/>
<path d="M47.8681 73.201C47.8681 73.3459 47.8993 73.4894 47.9598 73.6231C48.0202 73.7568 48.1088 73.878 48.2204 73.9797C48.332 74.0815 48.4644 74.1616 48.6097 74.2156C48.7551 74.2696 48.9106 74.2963 49.0673 74.2941L56.9783 74.2288C57.6942 74.2288 58.0521 73.8971 58.0521 73.2336L57.9448 42.1202C57.9448 41.8695 57.9985 41.6212 58.1028 41.3896C58.2072 41.158 58.3601 40.9476 58.5529 40.7704C58.7457 40.5931 58.9746 40.4525 59.2265 40.3566C59.4784 40.2606 59.7484 40.2112 60.021 40.2112L75.3599 40.2439C75.8916 40.2439 76.4014 40.4347 76.7773 40.7743C77.1533 41.1139 77.3645 41.5746 77.3645 42.0549L77.3466 73.2988C77.3466 73.4159 77.3718 73.5318 77.4206 73.6398C77.4694 73.7478 77.5409 73.8456 77.6309 73.9277C77.7208 74.0097 77.8276 74.0743 77.9447 74.1176C78.0619 74.1609 78.187 74.182 78.3131 74.1799L86.2779 74.1309C87.2205 74.1201 87.6859 73.6904 87.674 72.842L87.4234 28.2521C87.421 27.9979 87.4744 27.7458 87.5804 27.5103C87.6863 27.2749 87.8428 27.0607 88.0408 26.8802C88.2388 26.6997 88.4745 26.5564 88.7341 26.4587C88.9937 26.3609 89.2721 26.3106 89.5533 26.3105L104.284 26.3595C104.926 26.3638 105.541 26.5995 105.993 27.0151C106.446 27.4308 106.7 27.9927 106.7 28.5784V73.5599C106.7 73.7432 106.778 73.9192 106.919 74.0503C107.059 74.1814 107.251 74.2572 107.452 74.2614L114.575 74.392C115.219 74.4021 115.835 74.6297 116.304 75.0307C116.774 75.4317 117.064 75.9774 117.117 76.5619L117.188 77.3777C117.391 79.7924 116.168 80.9997 113.519 80.9997L14.255 80.9834C13.3056 80.9834 12.3951 80.6396 11.7238 80.0277C11.0525 79.4157 10.6753 78.5857 10.6753 77.7203V49.56C10.6753 48.94 10.9915 48.7442 11.624 48.9726L16.8682 50.8652C17.608 51.1371 17.9778 51.6375 17.9778 52.3662L17.8525 73.2173C17.8525 74.0222 18.288 74.4192 19.1591 74.4083L27.3028 74.3267C28.1381 74.3267 28.5557 73.9406 28.5557 73.1683L28.5736 55.2051C28.5737 54.9699 28.6768 54.7441 28.8609 54.5763C29.045 54.4084 29.2954 54.312 29.558 54.3077L46.3825 54.2751C46.5767 54.273 46.7694 54.306 46.9496 54.3722C47.1297 54.4385 47.2937 54.5367 47.4319 54.6611C47.5701 54.7856 47.6797 54.9338 47.7546 55.0972C47.8295 55.2606 47.8681 55.4359 47.8681 55.613V73.201Z" fill="#A30400"/>
</svg>
