<svg width="188" height="95" viewBox="0 0 188 95" fill="none" xmlns="http://www.w3.org/2000/svg">
<mask id="mask0_8098_1666" style="mask-type:luminance" maskUnits="userSpaceOnUse" x="5" y="3" width="77" height="82">
<path d="M5.1507 3.8689H81.1233V84.2535H5.1507V3.8689Z" fill="white"/>
</mask>
<g mask="url(#mask0_8098_1666)">
<path d="M5.14844 4.51377V83.62C5.14844 83.7051 5.16409 83.7857 5.19762 83.864C5.22892 83.9401 5.27586 84.0096 5.33399 84.07C5.39435 84.1305 5.46365 84.1752 5.54189 84.2088C5.6179 84.2402 5.70062 84.2558 5.78333 84.2558H80.4862C80.5689 84.2558 80.6516 84.2402 80.7298 84.2088C80.8058 84.1752 80.8751 84.1305 80.9355 84.07C80.9936 84.0096 81.0406 83.9401 81.0719 83.864C81.1054 83.7857 81.121 83.7051 81.121 83.62V4.51377C81.121 4.42869 81.1054 4.34809 81.0719 4.26973C81.0406 4.19137 80.9936 4.12421 80.9355 4.06376C80.8751 4.00331 80.8058 3.95853 80.7298 3.92495C80.6516 3.8936 80.5689 3.87793 80.4862 3.87793H5.78333C5.70062 3.87793 5.6179 3.8936 5.54189 3.92495C5.46365 3.95853 5.39435 4.00331 5.33399 4.06376C5.27586 4.12421 5.22892 4.19137 5.19762 4.26973C5.16409 4.34809 5.14844 4.42869 5.14844 4.51377ZM35.2679 36.2163C35.7552 36.2566 36.2359 36.3416 36.7076 36.4715C37.1793 36.6013 37.6353 36.7737 38.0757 36.9887C38.5161 37.2036 38.9319 37.4566 39.3231 37.7499C39.7166 38.0432 40.0788 38.3701 40.4096 38.7305C40.7427 39.091 41.0378 39.4783 41.2971 39.8947C41.5564 40.3089 41.7733 40.7455 41.9521 41.2022C42.131 41.659 42.2651 42.1269 42.3545 42.6083C42.4462 43.0919 42.4909 43.5777 42.4909 44.0658C42.4909 44.5561 42.4462 45.0419 42.3545 45.5233C42.2651 46.0046 42.131 46.4748 41.9521 46.9315C41.7733 47.3883 41.5564 47.8226 41.2971 48.239C41.0378 48.6555 40.7427 49.0428 40.4096 49.4032C40.0788 49.7637 39.7166 50.0906 39.3231 50.3839C38.9319 50.6749 38.5161 50.9302 38.0757 51.1451C37.6353 51.36 37.1793 51.5324 36.7076 51.6623C36.2359 51.7921 35.7552 51.8772 35.2679 51.9175V36.2163ZM33.9981 51.9175C33.5085 51.8772 33.0279 51.7944 32.5562 51.6645C32.0822 51.5347 31.6262 51.3623 31.1858 51.1473C30.7454 50.9346 30.3296 50.6794 29.9361 50.3861C29.5427 50.0951 29.1805 49.7682 28.8474 49.4077C28.5143 49.0473 28.2192 48.6577 27.9599 48.2435C27.7006 47.8271 27.4815 47.3905 27.3026 46.9338C27.1238 46.477 26.9897 46.0069 26.898 45.5255C26.8086 45.0442 26.7616 44.5561 26.7616 44.0658C26.7616 43.5754 26.8086 43.0896 26.898 42.6083C26.9897 42.1269 27.1238 41.6567 27.3026 41.2C27.4815 40.7433 27.7006 40.3067 27.9599 39.8903C28.2192 39.4738 28.5143 39.0865 28.8474 38.726C29.1805 38.3656 29.5427 38.0387 29.9361 37.7454C30.3296 37.4544 30.7454 37.1991 31.1858 36.9842C31.6262 36.7715 32.0822 36.5991 32.5562 36.4693C33.0279 36.3394 33.5085 36.2566 33.9981 36.2163V51.9175ZM25.4896 44.0658C25.4896 44.8628 25.5925 45.6442 25.7959 46.4143C26.0016 47.1823 26.3011 47.9122 26.6946 48.604C27.0903 49.2935 27.5664 49.9227 28.1231 50.4891C28.682 51.0555 29.3035 51.5414 29.9875 51.9466H6.42046V36.1872H29.9875C29.3035 36.5924 28.682 37.0782 28.1253 37.6447C27.5664 38.2111 27.0903 38.838 26.6946 39.5298C26.3011 40.2194 26.0016 40.9515 25.7981 41.7194C25.5925 42.4896 25.4896 43.271 25.4896 44.0658ZM6.41599 53.2183H34.6307C35.2276 53.2138 35.8156 53.1489 36.4013 53.028C36.9848 52.9071 37.5504 52.7302 38.1003 52.4974C38.648 52.2668 39.1711 51.9824 39.6629 51.6488C40.157 51.3152 40.6153 50.9346 41.0333 50.5115C41.4536 50.0883 41.8292 49.6271 42.1578 49.1301C42.4887 48.6331 42.7659 48.1092 42.9939 47.5562C43.2219 47.0054 43.3941 46.4367 43.5103 45.8501C43.6243 45.2658 43.6847 44.6747 43.6847 44.077C43.6847 43.4814 43.6288 42.8904 43.5125 42.3038C43.3985 41.7194 43.2286 41.1485 43.0028 40.5977C42.7771 40.0447 42.4998 39.5208 42.1712 39.0216C41.8426 38.5245 41.467 38.0633 41.049 37.6379C40.6309 37.2126 40.1749 36.832 39.6808 36.4984C39.189 36.1625 38.6681 35.8782 38.1182 35.6431C37.5705 35.4103 37.0049 35.2334 36.4214 35.1103C35.8379 34.9871 35.2478 34.9222 34.6509 34.9155C34.6464 34.9155 34.6397 34.9155 34.633 34.9155H6.42046V12.4394H14.9334C15.964 12.4461 16.9923 12.5021 18.0184 12.6095C19.0423 12.7148 20.0617 12.8715 21.07 13.0775C22.0804 13.2857 23.0775 13.5409 24.0633 13.8454C25.047 14.1477 26.015 14.5014 26.9673 14.8999C27.9174 15.2984 28.8452 15.744 29.7528 16.2343C30.6604 16.7224 31.5412 17.2575 32.3952 17.8328C33.2514 18.4105 34.0763 19.0262 34.8699 19.6844C35.6658 20.3404 36.4259 21.0367 37.1524 21.7666C37.879 22.4987 38.5698 23.2644 39.2203 24.0636C39.8731 24.8629 40.4834 25.6935 41.0557 26.5533C41.6258 27.413 42.1533 28.2974 42.6362 29.2086C43.1213 30.1198 43.5595 31.0512 43.9529 32.0049C44.3464 32.9609 44.6929 33.9304 44.9902 34.92C45.2876 35.9073 45.5379 36.9081 45.7369 37.92C45.9381 38.932 46.0879 39.9507 46.1885 40.9784C46.2891 42.006 46.3405 43.0359 46.3405 44.068C46.3405 45.1001 46.2891 46.1278 46.1885 47.1554C46.0879 48.1831 45.9381 49.2017 45.7369 50.216C45.5379 51.2279 45.2876 52.2265 44.9902 53.216C44.6929 54.2034 44.3464 55.1751 43.9529 56.1288C43.5595 57.0826 43.1213 58.014 42.6362 58.9252C42.1533 59.8364 41.6258 60.723 41.0557 61.5827C40.4834 62.4402 39.8731 63.2708 39.2203 64.0701C38.5698 64.8694 37.879 65.6351 37.1524 66.3672C36.4259 67.0993 35.6658 67.7934 34.8699 68.4516C34.0763 69.1076 33.2514 69.7255 32.3952 70.3009C31.5412 70.8785 30.6604 71.4114 29.7528 71.9017C28.8452 72.392 27.9174 72.8353 26.9673 73.2338C26.015 73.6346 25.047 73.9861 24.0633 74.2906C23.0775 74.5951 22.0804 74.8503 21.07 75.0563C20.0617 75.2623 19.0423 75.419 18.0184 75.5265C16.9923 75.6317 15.964 75.6899 14.9334 75.6944H6.42046L6.41599 53.2183ZM79.8468 51.9354C79.3483 51.9108 78.8564 51.8369 78.3713 51.716C77.8885 51.5951 77.419 51.4317 76.9652 51.2212C76.5136 51.013 76.0844 50.7622 75.6775 50.4712C75.2729 50.1801 74.8973 49.8533 74.5553 49.4906C74.211 49.1279 73.9047 48.7361 73.6365 48.3151C73.366 47.8942 73.1402 47.4509 72.9546 46.9875C72.7691 46.5218 72.6305 46.0449 72.5366 45.5546C72.4427 45.0643 72.3957 44.5673 72.3957 44.068C72.3957 43.5687 72.4427 43.0739 72.5366 42.5836C72.6305 42.0911 72.7691 41.6142 72.9546 41.1507C73.1402 40.6851 73.366 40.244 73.6365 39.8231C73.9047 39.4022 74.211 39.0104 74.5553 38.6477C74.8973 38.285 75.2729 37.9581 75.6775 37.6671C76.0844 37.3738 76.5136 37.1252 76.9652 36.9148C77.419 36.7043 77.8885 36.5409 78.3713 36.42C78.8564 36.2991 79.3483 36.2275 79.8468 36.2006V51.9354ZM79.8468 5.15185V34.9267C79.2633 34.9513 78.6888 35.0319 78.1232 35.1685C77.5554 35.305 77.0054 35.4931 76.4756 35.7349C75.9435 35.9767 75.4405 36.2655 74.9644 36.6036C74.4904 36.9417 74.05 37.32 73.6476 37.7432C73.2452 38.1641 72.8853 38.6208 72.5701 39.1111C72.2527 39.6014 71.9866 40.1186 71.7698 40.6604C71.5529 41.2022 71.3897 41.7597 71.278 42.3329C71.1684 42.906 71.1125 43.4837 71.1125 44.068C71.1125 44.6523 71.1684 45.23 71.278 45.8031C71.3897 46.3763 71.5529 46.9338 71.7698 47.4756C71.9866 48.0174 72.2527 48.5346 72.5701 49.0249C72.8853 49.5152 73.2452 49.9719 73.6476 50.3928C74.05 50.816 74.4904 51.1966 74.9644 51.5324C75.4405 51.8705 75.9435 52.1593 76.4756 52.4011C77.0054 52.6429 77.5554 52.831 78.1232 52.9675C78.6888 53.1041 79.2633 53.1847 79.8468 53.2093V82.9842H6.41599V76.9683H14.9312C16.0109 76.975 17.0885 76.928 18.1638 76.8272C19.239 76.7265 20.3076 76.5742 21.3673 76.3683C22.4292 76.1623 23.4754 75.9048 24.5105 75.5959C25.5455 75.2869 26.5627 74.9264 27.5642 74.5167C28.5635 74.107 29.5404 73.6503 30.495 73.1443C31.4496 72.6383 32.3773 72.0853 33.276 71.4875C34.1769 70.8897 35.0466 70.2494 35.8826 69.5666C36.721 68.8837 37.5213 68.1606 38.2881 67.3971C39.0526 66.6359 39.7792 65.8366 40.4677 65.0037C41.1541 64.1686 41.8001 63.3022 42.4015 62.4044C43.0028 61.5066 43.5595 60.582 44.0714 59.6282C44.5811 58.6744 45.0439 57.7005 45.4597 56.702C45.8733 55.7034 46.2399 54.687 46.5529 53.6504C46.8681 52.616 47.1319 51.5705 47.342 50.5092C47.5544 49.448 47.7131 48.3801 47.8182 47.3032C47.9255 46.2285 47.9792 45.1494 47.9792 44.068C47.9792 42.9866 47.9255 41.9075 47.8182 40.8306C47.7131 39.7537 47.5544 38.6857 47.342 37.6245C47.1319 36.5655 46.8681 35.5177 46.5529 34.4834C46.2399 33.449 45.8733 32.4326 45.4597 31.434C45.0439 30.4355 44.5811 29.4593 44.0714 28.5056C43.5595 27.554 43.0028 26.6272 42.4015 25.7294C41.8001 24.8316 41.1541 23.9651 40.4677 23.1323C39.7792 22.2972 39.0526 21.5001 38.2881 20.7367C37.5213 19.9732 36.721 19.2501 35.8826 18.5672C35.0466 17.8843 34.1769 17.244 33.276 16.6462C32.3773 16.0485 31.4496 15.4977 30.495 14.9895C29.5404 14.4835 28.5635 14.0268 27.5642 13.617C26.5627 13.2073 25.5455 12.8491 24.5105 12.5379C23.4754 12.2289 22.4292 11.9715 21.3673 11.7677C20.3076 11.5618 19.239 11.4073 18.1638 11.3088C17.0885 11.208 16.0109 11.161 14.9312 11.1655H6.42046V5.14961L79.8468 5.15185Z" fill="black"/>
</g>
<path d="M10.8425 38.2759V43.8663C10.8425 43.9335 10.8358 44.0007 10.8358 44.0656C10.8358 44.1328 10.8358 44.1999 10.8425 44.2648V49.8576C10.8425 49.9404 10.8582 50.021 10.8917 50.0994C10.923 50.1755 10.9677 50.2426 11.0281 50.3031C11.0862 50.3613 11.1533 50.4061 11.2315 50.4397C11.3075 50.471 11.388 50.4867 11.4707 50.4867C11.5557 50.4867 11.6339 50.471 11.7121 50.4397C11.7882 50.4061 11.8575 50.3613 11.9156 50.3031C11.9737 50.2426 12.0207 50.1755 12.0519 50.0994C12.0832 50.021 12.0989 49.9404 12.0989 49.8576V46.4858C12.3962 46.6918 12.7181 46.8396 13.0669 46.9269C13.4179 47.0142 13.7711 47.0366 14.1288 46.994C14.4887 46.9515 14.8263 46.8485 15.1459 46.6806C15.4656 46.5127 15.7451 46.2955 15.9843 46.0246C16.2235 45.7559 16.409 45.4515 16.5364 45.1156C16.6639 44.7775 16.7287 44.4283 16.7287 44.0678C16.7287 43.7051 16.6639 43.3559 16.5364 43.02C16.409 42.682 16.2235 42.3775 15.9843 42.1088C15.7451 41.8379 15.4656 41.6207 15.1459 41.4528C14.8263 41.2871 14.4887 41.1819 14.1288 41.1394C13.7711 41.0968 13.4179 41.1192 13.0669 41.2065C12.7181 41.2961 12.3962 41.4416 12.0989 41.6498V38.2759C12.0989 38.1908 12.0832 38.1124 12.0519 38.0341C12.0207 37.9579 11.9737 37.8885 11.9156 37.8303C11.8575 37.7721 11.7882 37.7251 11.7121 37.6937C11.6339 37.6624 11.5557 37.6467 11.4707 37.6467C11.388 37.6467 11.3075 37.6624 11.2315 37.6937C11.1533 37.7251 11.0862 37.7721 11.0281 37.8303C10.9677 37.8885 10.923 37.9579 10.8917 38.0341C10.8582 38.1124 10.8425 38.1908 10.8425 38.2759ZM15.4522 44.0656C15.4522 44.2895 15.4097 44.5022 15.3248 44.7081C15.2398 44.9119 15.1191 45.0932 14.9604 45.25C14.8039 45.4067 14.6228 45.5276 14.4194 45.6127C14.2137 45.6977 14.0013 45.7403 13.78 45.7403C13.5565 45.7403 13.3441 45.6977 13.1384 45.6127C12.935 45.5276 12.7539 45.4067 12.5974 45.25C12.4409 45.0932 12.3202 44.9119 12.2353 44.7081C12.1503 44.5022 12.1078 44.2895 12.1078 44.0656C12.1078 43.8439 12.1503 43.6312 12.2353 43.4253C12.3202 43.2215 12.4409 43.0402 12.5974 42.8835C12.7539 42.7267 12.935 42.6058 13.1384 42.5208C13.3441 42.4357 13.5565 42.3931 13.78 42.3931C14.0013 42.3931 14.2137 42.4357 14.4194 42.5208C14.6228 42.6058 14.8039 42.7267 14.9604 42.8835C15.1169 43.0402 15.2398 43.2215 15.3225 43.4253C15.4075 43.6312 15.45 43.8439 15.4522 44.0656Z" fill="black"/>
<path d="M67.464 59.9057C66.3194 59.9057 65.3313 60.3311 64.5042 61.1774C63.6815 62.0259 63.2701 63.0468 63.2701 64.2402C63.2701 65.4581 63.6815 66.4925 64.5042 67.3388C65.3313 68.1873 66.3194 68.6104 67.464 68.6104C68.0117 68.6104 68.5304 68.5433 69.02 68.4045C69.514 68.2679 69.8739 68.1313 70.102 67.9925L70.4149 67.7865L72.4716 72.0135C72.3107 72.1277 72.0871 72.271 71.801 72.4434C71.5148 72.618 70.862 72.8531 69.8426 73.1509C68.8277 73.4487 67.7368 73.5987 66.5698 73.5987C63.981 73.5987 61.7075 72.6897 59.7469 70.8672C57.7908 69.0403 56.8139 66.8552 56.8139 64.3118C56.8139 61.7461 57.7908 59.5385 59.7469 57.6937C61.7075 55.8444 63.981 54.9175 66.5698 54.9175C67.7368 54.9175 68.8143 55.0585 69.7979 55.3384C70.7816 55.6138 71.479 55.8892 71.8904 56.1623L72.4716 56.5742L70.4149 60.7296C69.6571 60.1811 68.6734 59.9057 67.464 59.9057Z" fill="black"/>
<path d="M73.6879 70.9837C71.7318 69.2418 70.7549 67.0052 70.7549 64.276C70.7549 61.549 71.7743 59.3057 73.8131 57.5504C75.8519 55.7951 78.3691 54.9175 81.3692 54.9175C84.3201 54.9175 86.8083 55.8018 88.8359 57.5683C90.8613 59.337 91.8763 61.5714 91.8763 64.276C91.8763 66.9805 90.8859 69.2105 88.9075 70.9657C86.9268 72.721 84.414 73.5987 81.3692 73.5987C78.2082 73.5987 75.6485 72.7277 73.6879 70.9837ZM78.3915 61.2848C77.6046 62.0617 77.2111 63.058 77.2111 64.276C77.2111 65.4895 77.5889 66.479 78.3468 67.2492C79.1024 68.0194 80.0994 68.4045 81.3335 68.4045C82.525 68.4045 83.5019 68.0171 84.2665 67.2403C85.0355 66.4589 85.42 65.4715 85.42 64.276C85.42 63.058 85.0221 62.0617 84.2307 61.2848C83.4438 60.5035 82.4781 60.1117 81.3335 60.1117C80.1643 60.1117 79.1829 60.5035 78.3915 61.2848Z" fill="black"/>
<path d="M91.8036 73.0792V55.4369H97.8843V57.2907H97.9558C99.5341 55.71 101.215 54.9175 102.999 54.9175C103.869 54.9175 104.734 55.0339 105.592 55.2667C106.451 55.4951 107.274 55.8489 108.06 56.3325C108.852 56.816 109.493 57.5011 109.983 58.3833C110.477 59.2609 110.725 60.2863 110.725 61.455V73.0792H104.653V63.1028C104.653 62.1894 104.361 61.3901 103.777 60.7027C103.191 60.0109 102.429 59.6639 101.488 59.6639C100.576 59.6639 99.7465 60.0199 99.002 60.7296C98.2554 61.4416 97.8843 62.2319 97.8843 63.1028V73.0792H91.8036Z" fill="black"/>
<path d="M111.582 73.0792V55.4369H117.663V57.2907H117.734C119.313 55.71 120.994 54.9175 122.778 54.9175C123.647 54.9175 124.513 55.0339 125.371 55.2667C126.23 55.4951 127.052 55.8489 127.839 56.3325C128.631 56.816 129.272 57.5011 129.762 58.3833C130.256 59.2609 130.504 60.2863 130.504 61.455V73.0792H124.432V63.1028C124.432 62.1894 124.139 61.3901 123.556 60.7027C122.97 60.0109 122.208 59.6639 121.267 59.6639C120.355 59.6639 119.525 60.0199 118.781 60.7296C118.034 61.4416 117.663 62.2319 117.663 63.1028V73.0792H111.582Z" fill="black"/>
<path d="M149.182 65.0999H136.413C136.413 66.3358 136.811 67.2537 137.611 67.8492C138.416 68.447 139.286 68.7448 140.222 68.7448C141.206 68.7448 141.984 68.6149 142.556 68.3507C143.128 68.0888 143.781 67.5671 144.515 66.7835L148.914 68.9866C147.076 72.0628 144.032 73.5987 139.775 73.5987C137.122 73.5987 134.844 72.6897 132.943 70.8672C131.041 69.0403 130.091 66.844 130.091 64.276C130.091 61.7102 131.041 59.5094 132.943 57.6758C134.844 55.8377 137.122 54.9175 139.775 54.9175C142.57 54.9175 144.841 55.728 146.589 57.3444C148.342 58.9631 149.218 61.2737 149.218 64.276C149.218 64.6879 149.205 64.9633 149.182 65.0999ZM136.583 61.7326H143.281C143.142 60.8147 142.782 60.1094 142.199 59.6191C141.613 59.1243 140.862 58.8758 139.945 58.8758C138.937 58.8758 138.134 59.1422 137.54 59.6729C136.949 60.199 136.63 60.8863 136.583 61.7326Z" fill="black"/>
<path d="M158.528 59.9057C157.383 59.9057 156.395 60.3311 155.568 61.1774C154.745 62.0259 154.334 63.0468 154.334 64.2402C154.334 65.4581 154.745 66.4925 155.568 67.3388C156.395 68.1873 157.383 68.6104 158.528 68.6104C159.075 68.6104 159.594 68.5433 160.084 68.4045C160.578 68.2679 160.938 68.1313 161.166 67.9925L161.479 67.7865L163.535 72.0135C163.374 72.1277 163.151 72.271 162.865 72.4434C162.579 72.618 161.926 72.8531 160.906 73.1509C159.891 73.4487 158.8 73.5987 157.634 73.5987C155.045 73.5987 152.771 72.6897 150.811 70.8672C148.855 69.0403 147.878 66.8552 147.878 64.3118C147.878 61.7461 148.855 59.5385 150.811 57.6937C152.771 55.8444 155.045 54.9175 157.634 54.9175C158.8 54.9175 159.878 55.0585 160.862 55.3384C161.845 55.6138 162.543 55.8892 162.954 56.1623L163.535 56.5742L161.479 60.7296C160.721 60.1811 159.737 59.9057 158.528 59.9057Z" fill="black"/>
<path d="M164.126 55.4367V48.8723H170.198V55.4367H173.909V60.0757H170.198V65.6818C170.198 67.3117 170.656 68.1267 171.575 68.1267C171.801 68.1267 172.04 68.0819 172.29 67.9923C172.545 67.8983 172.742 67.8043 172.88 67.7147L173.086 67.5804L174.597 72.4969C173.292 73.2313 171.803 73.5985 170.135 73.5985C168.991 73.5985 168.003 73.397 167.175 72.9984C166.353 72.5932 165.729 72.0536 165.306 71.3775C164.882 70.7036 164.578 69.9939 164.394 69.2461C164.216 68.5005 164.126 67.7035 164.126 66.855V60.0757H161.578V55.4367H164.126Z" fill="black"/>
<path d="M67.0243 39.1603C65.8797 39.1603 64.8916 39.5857 64.0645 40.432C63.2418 41.2806 62.8304 42.3015 62.8304 43.4948C62.8304 44.7127 63.2418 45.7471 64.0645 46.5934C64.8916 47.4419 65.8797 47.8651 67.0243 47.8651C67.572 47.8651 68.0907 47.7979 68.5803 47.6591C69.0743 47.5225 69.4342 47.386 69.6623 47.2472L69.9752 47.0412L72.0319 51.2682C71.871 51.3824 71.6474 51.5257 71.3613 51.698C71.0751 51.8727 70.4223 52.1078 69.4029 52.4055C68.388 52.7033 67.2971 52.8533 66.1301 52.8533C63.5413 52.8533 61.2678 51.9443 59.3072 50.1219C57.3511 48.295 56.3742 46.1098 56.3742 43.5664C56.3742 41.0007 57.3511 38.7932 59.3072 36.9483C61.2678 35.099 63.5413 34.1721 66.1301 34.1721C67.2971 34.1721 68.3746 34.3132 69.3582 34.593C70.3419 34.8684 71.0394 35.1438 71.4507 35.4169L72.0319 35.8289L69.9752 39.9842C69.2174 39.4357 68.2337 39.1603 67.0243 39.1603Z" fill="black"/>
<path d="M73.2486 50.2383C71.2925 48.4965 70.3156 46.2598 70.3156 43.5306C70.3156 40.8037 71.335 38.5603 73.3738 36.805C75.4126 35.0498 77.9298 34.1721 80.9299 34.1721C83.8808 34.1721 86.369 35.0565 88.3966 36.8229C90.422 38.5917 91.4369 40.8261 91.4369 43.5306C91.4369 46.2352 90.4466 48.4651 88.4681 50.2204C86.4875 51.9757 83.9747 52.8533 80.9299 52.8533C77.7688 52.8533 75.2091 51.9824 73.2486 50.2383ZM77.9522 40.5395C77.1652 41.3164 76.7718 42.3127 76.7718 43.5306C76.7718 44.7441 77.1496 45.7337 77.9074 46.5038C78.6631 47.274 79.6601 47.6591 80.8941 47.6591C82.0857 47.6591 83.0626 47.2718 83.8272 46.4949C84.5962 45.7135 84.9807 44.7262 84.9807 43.5306C84.9807 42.3127 84.5828 41.3164 83.7914 40.5395C83.0045 39.7581 82.0387 39.3663 80.8941 39.3663C79.7249 39.3663 78.7435 39.7581 77.9522 40.5395Z" fill="black"/>
<path d="M97.1046 34.6917V43.083C97.1046 44.827 97.3662 46.0651 97.8915 46.7995C98.4146 47.5338 99.3066 47.901 100.565 47.901C101.828 47.901 102.723 47.5338 103.248 46.7995C103.771 46.0651 104.035 44.827 104.035 43.083V34.6917H110.115V44.5606C110.115 47.498 109.351 49.616 107.826 50.9101C106.306 52.2064 103.885 52.8534 100.565 52.8534C97.2499 52.8534 94.8288 52.2064 93.3042 50.9101C91.784 49.616 91.0239 47.498 91.0239 44.5606V34.6917H97.1046Z" fill="black"/>
<path d="M110.971 52.3339V34.6915H117.051V37.2349H117.123C117.163 37.1453 117.235 37.0334 117.338 36.8946C117.445 36.758 117.668 36.5185 118.008 36.1782C118.352 35.8334 118.719 35.5222 119.108 35.2468C119.502 34.9669 120.005 34.7184 120.619 34.5035C121.239 34.2841 121.871 34.1721 122.515 34.1721C123.177 34.1721 123.825 34.2662 124.464 34.4497C125.108 34.6356 125.578 34.8214 125.877 35.005L126.36 35.2736L123.821 40.432C123.063 39.7939 122.008 39.4738 120.655 39.4738C119.922 39.4738 119.291 39.635 118.768 39.9574C118.243 40.2753 117.87 40.6626 117.65 41.1216C117.436 41.5828 117.279 41.9724 117.186 42.2948C117.096 42.6127 117.051 42.8634 117.051 43.047V52.3339H110.971Z" fill="black"/>
<path d="M126.189 34.6916V28.1272H132.261V34.6916H135.972V39.3305H132.261V44.9367C132.261 46.5666 132.719 47.3815 133.638 47.3815C133.864 47.3815 134.103 47.3368 134.353 47.2472C134.608 47.1532 134.805 47.0591 134.944 46.9696L135.149 46.8352L136.661 51.7518C135.355 52.4862 133.866 52.8533 132.198 52.8533C131.054 52.8533 130.066 52.6518 129.239 52.2533C128.416 51.8481 127.792 51.3085 127.37 50.6324C126.945 49.9585 126.641 49.2488 126.458 48.501C126.279 47.7554 126.189 46.9584 126.189 46.1099V39.3305H123.641V34.6916H126.189Z" fill="black"/>
</svg>
