<svg width="636" height="551" viewBox="0 0 636 551" fill="none" xmlns="http://www.w3.org/2000/svg">
<path d="M228.65 0.781494C229.759 1.95367 229.512 4.23297 228.095 5.60052C226.986 6.64246 225.384 6.90289 216.265 7.29364C200.307 7.94489 191.311 9.3125 178.248 12.9594C165.063 16.7364 156.93 22.3369 150.645 32.1053C146.701 38.2267 145.469 40.8969 143.559 47.5393C140.232 59.0009 139.184 65.2526 138.198 79.4493C137.89 84.2683 137.336 92.4738 136.966 97.6835C136.535 103.805 136.35 134.803 136.473 185.533L136.658 263.941L138.383 265.308L140.17 266.676L231.422 266.481C317.191 266.22 322.859 266.155 324.277 265.113C325.139 264.462 330.13 258.08 335.367 250.851C349.416 231.575 349.662 231.314 379.669 191.069C382.934 186.706 387.802 180.193 390.513 176.481C393.224 172.835 395.935 169.188 396.613 168.471C397.229 167.69 398.954 165.411 400.433 163.327C403.883 158.703 407.396 156.945 411.154 158.182C415.221 159.419 416.699 161.308 417.131 165.411C417.562 170.165 416.823 171.793 410.723 179.542C405.547 185.989 395.504 199.144 392.669 203.182C391.807 204.354 389.466 207.48 387.432 210.085C382.38 216.467 372.583 229.296 369.564 233.464C368.208 235.287 363.341 241.799 358.781 247.856C348.122 261.922 346.088 264.918 346.828 265.699C347.136 266.025 377.697 266.35 421.875 266.415L496.368 266.611L497.477 265.113C498.586 263.68 498.648 260.554 498.648 181.496C498.648 91.1062 498.278 75.9326 495.813 63.1687C491.932 43.1761 487.927 34.059 478.931 24.7465C475.111 20.8391 466.176 15.5643 460.816 14.0665C459.091 13.5455 456.133 12.6989 454.285 12.1127C447.199 9.96375 431.117 7.87976 419.041 7.61932C410.107 7.42395 408.566 7.22864 407.457 6.18665C406.102 4.88422 405.794 2.0188 406.964 0.781494C407.519 0.195374 433.705 0 520.891 0C622.987 0 634.201 0.130249 635.064 1.04193C636.235 2.2793 636.296 2.67004 635.31 4.88416C634.386 7.09833 631.737 7.74963 622.802 7.74963C607.892 7.87988 594.275 11.0057 582.691 16.9969C566.425 25.4629 559.277 40.3108 555.519 73.5883C554.471 83.1613 554.41 93.4505 554.41 274.816C554.41 455.531 554.471 466.536 555.519 476.37C556.135 482.101 557.059 488.678 557.49 491.022C557.983 493.367 558.538 496.427 558.723 497.86C559.585 503.2 563.775 514.206 566.671 518.699C569.074 522.346 572.216 525.863 575.913 529.054C579.918 532.44 588.914 537.324 593.535 538.562C600.436 540.45 604.01 541.101 608.631 541.492C611.342 541.753 615.902 542.339 618.797 542.86C621.693 543.381 626.315 543.771 629.026 543.771C634.633 543.771 635.68 544.423 635.31 547.483C635.187 548.656 634.571 549.567 633.524 550.088C632.23 550.74 608.2 550.935 520.151 550.935L408.381 551L407.334 549.567C406.718 548.786 406.225 547.679 406.225 547.028C406.225 544.553 408.073 543.967 418.548 543.185C436.971 541.818 441.592 541.297 449.602 539.538C461.124 536.999 469.319 533.156 477.206 526.514C487.249 518.113 493.965 502.744 496.799 481.905C498.278 471.03 498.648 447.716 498.648 365.141C498.648 288.883 498.525 278.463 497.724 276.77L496.738 274.816H418.363C356.563 274.816 339.68 275.012 338.941 275.598C337.585 276.77 329.391 287.32 323.044 296.241C320.148 300.279 316.575 305.228 315.034 307.312C304.19 322.16 288.601 346.19 280.468 360.387C278.312 364.164 275.785 368.527 274.861 370.025C267.221 382.854 250.523 415.676 245.471 427.854C244.3 430.524 242.636 434.496 241.65 436.645C238.631 443.483 236.105 450.126 233.887 457.159C232.655 460.936 231.176 465.429 230.498 467.188C229.882 468.946 229.389 470.965 229.389 471.746C229.327 473.83 226.123 480.277 225.014 480.473C223.104 480.863 223.104 480.277 225.446 463.997C226 460.024 226.678 455.01 226.986 452.796C227.91 445.567 232.778 427.723 237.214 415.48C249.599 381.096 274.368 336.357 305.361 292.595C310.475 285.366 316.267 276.249 316.267 275.402C316.267 275.077 314.973 274.816 313.371 274.816C311.707 274.816 271.904 274.816 224.768 274.816C139.924 274.881 139.123 274.881 137.89 276.184C136.658 277.421 136.658 278.333 136.658 366.508C136.658 433.129 136.843 457.224 137.397 462.369C137.829 466.146 138.507 472.723 138.876 477.021C140.417 495.581 145.223 510.95 152.308 520.262C156.868 526.188 164.631 531.919 173.319 535.761C177.817 537.78 188.045 540.32 194.761 541.167C209.857 542.99 212.999 543.316 219.839 543.576C225.322 543.837 227.479 544.162 228.342 544.944C229.697 546.181 229.697 548.004 228.28 549.502C227.233 550.609 221.749 550.674 114.661 550.805C13.4276 550.935 2.02876 550.805 1.16615 549.893C0.0570721 548.786 -0.127769 546.572 0.734845 545.139C1.04292 544.618 2.64491 544.162 4.55499 544.032C34.6848 541.753 46.7614 538.757 57.9138 530.617C68.45 522.932 73.8721 513.034 78.062 493.888C78.9246 489.915 79.664 485.226 79.664 483.468C79.664 481.71 80.1569 476.63 80.7114 472.137C81.6357 464.778 81.7589 446.935 81.9437 280.026C82.1286 157.205 82.0054 93.6459 81.5741 88.8919C81.2044 84.9195 80.465 76.9095 79.9721 71.0485C78.863 58.545 77.3226 50.8605 74.3034 42.5249C69.6823 29.6307 63.3359 21.2299 54.8946 16.8016C50.2735 14.327 41.709 11.3313 36.5333 10.3545C26.3668 8.46594 21.5608 7.87982 12.9962 7.42395C7.69734 7.16351 2.70653 6.64252 1.96715 6.25177C0.057077 5.20978 -0.55908 3.06073 0.549994 1.36755L1.47422 0H114.723C201.909 0 228.095 0.195374 228.65 0.781494Z" fill="url(#paint0_linear_1272_30147)"/>
<defs>
<linearGradient id="paint0_linear_1272_30147" x1="318" y1="551" x2="318" y2="0" gradientUnits="userSpaceOnUse">
<stop stop-color="#8E0003"/>
<stop offset="1" stop-color="#4D0304"/>
</linearGradient>
</defs>
</svg>
